<?xml version="1.0" standalone="no"?>
<!DOCTYPE svg PUBLIC "-//W3C//DTD SVG 20010904//EN"
 "http://www.w3.org/TR/2001/REC-SVG-20010904/DTD/svg10.dtd">
<svg version="1.0" xmlns="http://www.w3.org/2000/svg"
 width="200.000000pt" height="200.000000pt" viewBox="0 0 200.000000 200.000000"
 preserveAspectRatio="xMidYMid meet">

<g transform="translate(0.000000,200.000000) scale(0.100000,-0.100000)"
fill="#000000" stroke="none">
<path d="M867 1323 c-2 -4 -8 -26 -12 -48 -6 -35 -8 -37 -17 -20 -6 11 -12 21
-13 23 -1 1 -35 -20 -75 -48 -41 -27 -80 -50 -87 -50 -7 0 -13 -7 -13 -15 0
-11 11 -15 39 -15 52 0 59 -15 25 -51 -35 -37 -47 -36 -78 3 -14 18 -27 30
-29 28 -11 -13 -59 -146 -60 -168 -2 -21 3 -27 21 -28 21 -1 22 0 8 22 -14 20
-14 27 0 68 19 55 29 60 21 11 -4 -27 -2 -35 9 -35 10 0 13 7 8 24 -3 14 -3
34 1 46 7 21 8 21 23 6 14 -14 15 -19 3 -39 -7 -12 -8 -17 -2 -11 7 6 23 9 37
6 19 -3 23 -9 18 -21 -3 -9 -7 -33 -8 -55 -2 -60 26 -76 130 -76 77 0 84 -2
84 -20 0 -18 -7 -20 -67 -20 -78 0 -117 -16 -121 -48 -3 -22 -1 -22 105 -22
73 0 115 4 127 13 25 19 33 90 12 122 -16 24 -21 25 -111 25 -95 0 -95 0 -95
25 0 25 1 25 83 25 97 0 134 14 129 51 -2 13 -6 48 -9 77 -3 36 -9 52 -19 52
-16 0 -19 -26 -4 -35 6 -3 10 -18 10 -33 0 -22 -5 -27 -25 -28 -14 -1 -23 1
-20 5 2 4 -10 5 -27 3 -19 -3 -33 0 -38 9 -7 10 -14 11 -32 2 -13 -6 -43 -14
-68 -18 l-45 -6 30 31 c33 34 42 36 65 15 16 -14 18 -14 24 0 3 9 2 13 -4 10
-6 -3 -10 3 -10 14 0 22 82 71 120 71 24 0 24 -2 4 46 -9 22 -17 48 -18 58 -1
20 -21 33 -29 19z m33 -88 c0 -26 -98 -78 -121 -65 -8 5 -18 5 -26 -1 -6 -6
-26 -9 -44 -7 -32 3 -32 3 39 51 l72 47 11 -27 11 -28 14 30 c7 17 13 37 14
45 1 24 30 -19 30 -45z m-100 -184 c0 -10 -91 -22 -105 -13 -5 3 1 9 15 13 37
10 90 10 90 0z m105 -1 c25 -6 20 -8 -28 -9 -37 -1 -56 3 -52 9 7 11 36 11 80
0z"/>
<path d="M765 1200 c-3 -5 -1 -10 4 -10 6 0 11 5 11 10 0 6 -2 10 -4 10 -3 0
-8 -4 -11 -10z"/>
<path d="M799 1183 c-13 -16 -12 -17 4 -4 9 7 17 15 17 17 0 8 -8 3 -21 -13z"/>
<path d="M393 1294 c0 -7 6 -10 14 -7 7 3 13 8 13 12 0 4 -6 8 -13 8 -8 0 -14
-6 -14 -13z"/>
<path d="M485 1260 c-3 -5 1 -10 10 -10 9 0 13 5 10 10 -3 6 -8 10 -10 10 -2
0 -7 -4 -10 -10z"/>
<path d="M383 1218 c-2 -18 0 -20 7 -8 12 18 13 30 2 30 -4 0 -9 -10 -9 -22z"/>
<path d="M546 1223 c-6 -14 -5 -15 5 -6 7 7 10 15 7 18 -3 3 -9 -2 -12 -12z"/>
<path d="M865 1149 c-4 -6 -5 -12 -2 -15 2 -3 7 2 10 11 7 17 1 20 -8 4z"/>
<path d="M410 1096 c0 -2 7 -7 16 -10 8 -3 12 -2 9 4 -6 10 -25 14 -25 6z"/>
<path d="M515 1089 c-10 -15 3 -25 16 -12 7 7 7 13 1 17 -6 3 -14 1 -17 -5z"/>
<path d="M1006 1018 c-22 -31 -23 -248 -2 -248 20 0 36 24 43 64 l6 36 73 0
74 0 0 30 0 30 -75 0 -75 0 0 55 c0 61 -16 73 -44 33z"/>
<path d="M1445 1030 c-4 -6 -11 -8 -16 -5 -5 4 -9 2 -9 -4 0 -5 12 -9 28 -7
15 1 33 -2 40 -7 8 -6 12 -6 12 1 0 6 -9 16 -19 22 -24 13 -28 13 -36 0z"/>
<path d="M1645 1011 c-3 -6 -10 -9 -15 -6 -4 3 -7 -2 -6 -11 1 -9 11 -21 22
-26 17 -8 17 -8 2 4 -15 13 -15 15 0 25 9 6 14 14 11 17 -4 4 -10 2 -14 -3z"/>
<path d="M1412 995 c2 -3 14 -6 27 -8 12 -2 27 -10 31 -18 7 -10 9 -9 8 6 -2
15 -10 21 -36 22 -19 1 -32 0 -30 -2z"/>
<path d="M425 979 c-4 -6 -4 -13 -1 -16 3 -4 6 -1 6 6 0 7 5 9 10 6 6 -3 10
-1 10 4 0 14 -17 14 -25 0z"/>
<path d="M1210 921 c0 -61 15 -91 46 -91 23 0 19 112 -4 133 -33 30 -42 21
-42 -42z"/>
<path d="M1391 977 c2 -1 13 -9 24 -17 19 -14 19 -14 6 3 -7 9 -18 17 -24 17
-6 0 -8 -1 -6 -3z"/>
<path d="M663 963 c-17 -6 -17 -33 0 -33 7 0 13 9 13 20 0 11 0 20 -1 19 0 0
-6 -3 -12 -6z"/>
<path d="M1376 945 c-3 -8 0 -17 6 -21 6 -4 8 -3 4 4 -3 6 2 12 11 14 16 3 17
4 1 10 -10 4 -18 1 -22 -7z"/>
<path d="M1622 915 c0 -16 2 -22 5 -12 2 9 2 23 0 30 -3 6 -5 -1 -5 -18z"/>
<path d="M607 919 c7 -7 15 -10 18 -7 3 3 -2 9 -12 12 -14 6 -15 5 -6 -5z"/>
<path d="M1528 912 c3 -10 1 -13 -6 -8 -7 4 -12 2 -12 -3 0 -6 3 -11 8 -11 4
0 16 -14 27 -30 11 -16 24 -30 28 -30 5 0 -3 14 -17 31 -20 23 -24 35 -17 48
7 13 6 18 -4 18 -7 0 -11 -7 -7 -15z"/>
<path d="M1382 893 c-12 -13 -19 -30 -16 -35 4 -6 -1 -17 -11 -25 -11 -7 -14
-13 -7 -13 15 0 43 41 36 52 -3 5 2 15 12 23 11 7 17 16 14 18 -3 3 -15 -6
-28 -20z"/>
<path d="M1455 910 c-3 -5 -4 -14 -1 -19 4 -5 0 -12 -6 -14 -7 -3 3 -5 22 -6
32 0 33 1 11 10 -19 8 -21 12 -11 24 8 10 9 15 2 15 -6 0 -14 -4 -17 -10z"/>
<path d="M1553 895 c0 -8 10 -23 21 -32 21 -18 21 -18 4 2 -9 11 -17 24 -16
28 0 5 -2 11 -4 13 -3 2 -5 -3 -5 -11z"/>
<path d="M557 893 c-8 -15 44 -84 78 -104 30 -18 33 -23 24 -46 -15 -41 -2
-39 15 2 18 41 22 80 7 56 -5 -8 -16 -11 -29 -7 -28 9 -72 62 -72 87 0 19 -15
26 -23 12z"/>
<path d="M657 874 c-14 -14 -7 -35 11 -32 9 2 17 10 17 17 0 16 -18 25 -28 15z"/>
<path d="M1329 853 c-13 -16 -12 -17 4 -4 16 13 21 21 13 21 -2 0 -10 -8 -17
-17z"/>
<path d="M1621 844 c0 -11 3 -14 6 -6 3 7 2 16 -1 19 -3 4 -6 -2 -5 -13z"/>
<path d="M554 819 c-4 -7 -3 -9 4 -5 5 3 13 0 15 -6 4 -9 6 -10 6 -1 1 17 -16
25 -25 12z"/>
<path d="M1646 813 c-6 -14 -5 -15 5 -6 7 7 10 15 7 18 -3 3 -9 -2 -12 -12z"/>
<path d="M1326 794 c-5 -14 -4 -15 9 -4 17 14 19 20 6 20 -5 0 -12 -7 -15 -16z"/>
</g>
</svg>
